<mxfile host="app.diagrams.net" modified="2023-12-11T06:00:33.596Z" agent="Mozilla/5.0 (Macintosh; Intel Mac OS X 10_15_7) AppleWebKit/537.36 (KHTML, like Gecko) Chrome/119.0.0.0 Safari/537.36 Edg/119.0.0.0" etag="PRNWYo2TuaJ9RblDr3am" version="22.1.5" type="github">
  <diagram name="Page-1" id="woCRrMwUnZ6_5PgbaH8T">
    <mxGraphModel dx="1186" dy="1870" grid="1" gridSize="10" guides="1" tooltips="1" connect="1" arrows="1" fold="1" page="1" pageScale="1" pageWidth="850" pageHeight="1100" math="0" shadow="0">
      <root>
        <mxCell id="0" />
        <mxCell id="1" parent="0" />
        <mxCell id="KD3m5nGk-_m69su_pS_g-53" value="" style="rounded=0;whiteSpace=wrap;html=1;" parent="1" vertex="1">
          <mxGeometry x="850" y="280" width="530" height="210" as="geometry" />
        </mxCell>
        <mxCell id="KD3m5nGk-_m69su_pS_g-52" value="" style="rounded=0;whiteSpace=wrap;html=1;" parent="1" vertex="1">
          <mxGeometry x="850" y="40" width="530" height="220" as="geometry" />
        </mxCell>
        <mxCell id="KD3m5nGk-_m69su_pS_g-8" value="" style="edgeStyle=orthogonalEdgeStyle;rounded=0;orthogonalLoop=1;jettySize=auto;html=1;" parent="1" source="KD3m5nGk-_m69su_pS_g-2" target="KD3m5nGk-_m69su_pS_g-7" edge="1">
          <mxGeometry relative="1" as="geometry" />
        </mxCell>
        <mxCell id="KD3m5nGk-_m69su_pS_g-14" value="" style="edgeStyle=orthogonalEdgeStyle;rounded=0;orthogonalLoop=1;jettySize=auto;html=1;" parent="1" source="KD3m5nGk-_m69su_pS_g-2" target="KD3m5nGk-_m69su_pS_g-13" edge="1">
          <mxGeometry relative="1" as="geometry" />
        </mxCell>
        <mxCell id="KD3m5nGk-_m69su_pS_g-16" value="" style="edgeStyle=orthogonalEdgeStyle;rounded=0;orthogonalLoop=1;jettySize=auto;html=1;" parent="1" source="KD3m5nGk-_m69su_pS_g-2" target="KD3m5nGk-_m69su_pS_g-15" edge="1">
          <mxGeometry relative="1" as="geometry" />
        </mxCell>
        <mxCell id="KD3m5nGk-_m69su_pS_g-23" value="" style="edgeStyle=orthogonalEdgeStyle;rounded=0;orthogonalLoop=1;jettySize=auto;html=1;" parent="1" source="KD3m5nGk-_m69su_pS_g-2" target="KD3m5nGk-_m69su_pS_g-22" edge="1">
          <mxGeometry relative="1" as="geometry" />
        </mxCell>
        <mxCell id="KD3m5nGk-_m69su_pS_g-25" style="edgeStyle=orthogonalEdgeStyle;rounded=0;orthogonalLoop=1;jettySize=auto;html=1;exitX=0;exitY=0;exitDx=0;exitDy=0;entryX=1;entryY=0.5;entryDx=0;entryDy=0;" parent="1" source="KD3m5nGk-_m69su_pS_g-2" target="KD3m5nGk-_m69su_pS_g-24" edge="1">
          <mxGeometry relative="1" as="geometry" />
        </mxCell>
        <mxCell id="KD3m5nGk-_m69su_pS_g-75" style="edgeStyle=orthogonalEdgeStyle;rounded=0;orthogonalLoop=1;jettySize=auto;html=1;exitX=0;exitY=1;exitDx=0;exitDy=0;entryX=1;entryY=0.5;entryDx=0;entryDy=0;" parent="1" source="KD3m5nGk-_m69su_pS_g-2" target="KD3m5nGk-_m69su_pS_g-74" edge="1">
          <mxGeometry relative="1" as="geometry" />
        </mxCell>
        <mxCell id="KD3m5nGk-_m69su_pS_g-77" style="edgeStyle=orthogonalEdgeStyle;rounded=0;orthogonalLoop=1;jettySize=auto;html=1;exitX=1;exitY=1;exitDx=0;exitDy=0;entryX=0;entryY=0.5;entryDx=0;entryDy=0;" parent="1" source="KD3m5nGk-_m69su_pS_g-2" target="KD3m5nGk-_m69su_pS_g-76" edge="1">
          <mxGeometry relative="1" as="geometry" />
        </mxCell>
        <mxCell id="KD3m5nGk-_m69su_pS_g-80" style="edgeStyle=orthogonalEdgeStyle;rounded=0;orthogonalLoop=1;jettySize=auto;html=1;exitX=1;exitY=0;exitDx=0;exitDy=0;entryX=0;entryY=0.5;entryDx=0;entryDy=0;" parent="1" source="KD3m5nGk-_m69su_pS_g-2" target="KD3m5nGk-_m69su_pS_g-79" edge="1">
          <mxGeometry relative="1" as="geometry" />
        </mxCell>
        <mxCell id="KD3m5nGk-_m69su_pS_g-2" value="Diagram&lt;br&gt;Tool" style="ellipse;whiteSpace=wrap;html=1;aspect=fixed;fillColor=#1ba1e2;strokeColor=#006EAF;fontColor=#ffffff;" parent="1" vertex="1">
          <mxGeometry x="345" y="220" width="80" height="80" as="geometry" />
        </mxCell>
        <mxCell id="KD3m5nGk-_m69su_pS_g-12" value="" style="edgeStyle=orthogonalEdgeStyle;rounded=0;orthogonalLoop=1;jettySize=auto;html=1;fillColor=#d5e8d4;strokeColor=#82b366;" parent="1" source="KD3m5nGk-_m69su_pS_g-7" target="KD3m5nGk-_m69su_pS_g-11" edge="1">
          <mxGeometry relative="1" as="geometry" />
        </mxCell>
        <mxCell id="KD3m5nGk-_m69su_pS_g-7" value="Communication" style="whiteSpace=wrap;html=1;fillColor=#d5e8d4;strokeColor=#82b366;" parent="1" vertex="1">
          <mxGeometry x="480" y="230" width="120" height="60" as="geometry" />
        </mxCell>
        <mxCell id="KD3m5nGk-_m69su_pS_g-9" value="with&lt;br&gt;Other people" style="ellipse;whiteSpace=wrap;html=1;fillColor=#d5e8d4;strokeColor=#82b366;" parent="1" vertex="1">
          <mxGeometry x="710" y="170" width="80" height="80" as="geometry" />
        </mxCell>
        <mxCell id="KD3m5nGk-_m69su_pS_g-11" value="For Feature ME" style="ellipse;whiteSpace=wrap;html=1;fillColor=#d5e8d4;strokeColor=#82b366;" parent="1" vertex="1">
          <mxGeometry x="710" y="280" width="80" height="80" as="geometry" />
        </mxCell>
        <mxCell id="KD3m5nGk-_m69su_pS_g-13" value="Refine requirements" style="whiteSpace=wrap;html=1;fillColor=#dae8fc;strokeColor=#6c8ebf;" parent="1" vertex="1">
          <mxGeometry x="165" y="230" width="120" height="60" as="geometry" />
        </mxCell>
        <mxCell id="KD3m5nGk-_m69su_pS_g-15" value="See potentially Mem leak" style="whiteSpace=wrap;html=1;fillColor=#fff2cc;strokeColor=#d6b656;" parent="1" vertex="1">
          <mxGeometry x="325" y="370" width="120" height="60" as="geometry" />
        </mxCell>
        <mxCell id="KD3m5nGk-_m69su_pS_g-19" value="An Instant of Class" style="rounded=0;whiteSpace=wrap;html=1;fillColor=#6a00ff;fontColor=#ffffff;strokeColor=#3700CC;" parent="1" vertex="1">
          <mxGeometry x="1500" y="40" width="120" height="50" as="geometry" />
        </mxCell>
        <mxCell id="KD3m5nGk-_m69su_pS_g-20" value="&amp;lt;An Interface Abstraction&amp;gt;" style="rounded=0;whiteSpace=wrap;html=1;fillColor=#1ba1e2;fontColor=#ffffff;strokeColor=#006EAF;" parent="1" vertex="1">
          <mxGeometry x="1500" y="120" width="155" height="50" as="geometry" />
        </mxCell>
        <mxCell id="KD3m5nGk-_m69su_pS_g-21" value="&lt;b&gt;&lt;font style=&quot;font-size: 14px;&quot;&gt;Software Diagram&amp;nbsp;&lt;/font&gt;&lt;/b&gt;" style="text;html=1;strokeColor=none;fillColor=none;align=center;verticalAlign=middle;whiteSpace=wrap;rounded=0;" parent="1" vertex="1">
          <mxGeometry x="1500" y="-10" width="350" height="30" as="geometry" />
        </mxCell>
        <mxCell id="KD3m5nGk-_m69su_pS_g-22" value="A tool to keep track changed" style="whiteSpace=wrap;html=1;fillColor=#e1d5e7;strokeColor=#9673a6;" parent="1" vertex="1">
          <mxGeometry x="325" y="70" width="120" height="60" as="geometry" />
        </mxCell>
        <mxCell id="KD3m5nGk-_m69su_pS_g-24" value="The simplest tool that easy to use and understant" style="rounded=0;whiteSpace=wrap;html=1;fillColor=#d80073;fontColor=#ffffff;strokeColor=#A50040;" parent="1" vertex="1">
          <mxGeometry x="165" y="130" width="120" height="60" as="geometry" />
        </mxCell>
        <mxCell id="KD3m5nGk-_m69su_pS_g-26" value="&lt;b&gt;&lt;font style=&quot;font-size: 14px;&quot;&gt;Example&lt;br&gt;Social network app&lt;br&gt;&lt;/font&gt;&lt;/b&gt;" style="text;html=1;strokeColor=none;fillColor=none;align=center;verticalAlign=middle;whiteSpace=wrap;rounded=0;" parent="1" vertex="1">
          <mxGeometry x="935" y="-10" width="350" height="30" as="geometry" />
        </mxCell>
        <mxCell id="KD3m5nGk-_m69su_pS_g-34" style="edgeStyle=orthogonalEdgeStyle;rounded=0;orthogonalLoop=1;jettySize=auto;html=1;exitX=0.5;exitY=1;exitDx=0;exitDy=0;endArrow=block;endFill=0;fillColor=#e1d5e7;strokeColor=#9673a6;" parent="1" source="KD3m5nGk-_m69su_pS_g-27" target="KD3m5nGk-_m69su_pS_g-30" edge="1">
          <mxGeometry relative="1" as="geometry" />
        </mxCell>
        <mxCell id="KD3m5nGk-_m69su_pS_g-39" style="edgeStyle=orthogonalEdgeStyle;rounded=0;orthogonalLoop=1;jettySize=auto;html=1;exitX=0.5;exitY=0;exitDx=0;exitDy=0;entryX=0.5;entryY=1;entryDx=0;entryDy=0;fillColor=#e1d5e7;strokeColor=#9673a6;" parent="1" source="KD3m5nGk-_m69su_pS_g-27" target="KD3m5nGk-_m69su_pS_g-38" edge="1">
          <mxGeometry relative="1" as="geometry" />
        </mxCell>
        <mxCell id="KD3m5nGk-_m69su_pS_g-27" value="FeedViewController" style="rounded=0;whiteSpace=wrap;html=1;fillColor=#e1d5e7;strokeColor=#9673a6;" parent="1" vertex="1">
          <mxGeometry x="1050" y="290" width="120" height="40" as="geometry" />
        </mxCell>
        <mxCell id="KD3m5nGk-_m69su_pS_g-30" value="UIViewController" style="rounded=0;whiteSpace=wrap;html=1;fillColor=#60a917;strokeColor=#2D7600;fontColor=#ffffff;" parent="1" vertex="1">
          <mxGeometry x="1050" y="360" width="120" height="40" as="geometry" />
        </mxCell>
        <mxCell id="KD3m5nGk-_m69su_pS_g-35" style="edgeStyle=orthogonalEdgeStyle;rounded=0;orthogonalLoop=1;jettySize=auto;html=1;exitX=0.5;exitY=0;exitDx=0;exitDy=0;entryX=0.5;entryY=1;entryDx=0;entryDy=0;fillColor=#60a917;strokeColor=#2D7600;" parent="1" source="KD3m5nGk-_m69su_pS_g-33" target="KD3m5nGk-_m69su_pS_g-30" edge="1">
          <mxGeometry relative="1" as="geometry" />
        </mxCell>
        <mxCell id="KD3m5nGk-_m69su_pS_g-33" value="UIKit" style="rounded=0;whiteSpace=wrap;html=1;fillColor=#60a917;fontColor=#ffffff;strokeColor=#2D7600;" parent="1" vertex="1">
          <mxGeometry x="1050" y="430" width="120" height="40" as="geometry" />
        </mxCell>
        <mxCell id="KD3m5nGk-_m69su_pS_g-38" value="&amp;lt;FeedLoader&amp;gt;" style="rounded=0;whiteSpace=wrap;html=1;fillColor=#e1d5e7;strokeColor=#9673a6;" parent="1" vertex="1">
          <mxGeometry x="1050" y="200" width="120" height="40" as="geometry" />
        </mxCell>
        <mxCell id="KD3m5nGk-_m69su_pS_g-46" style="edgeStyle=orthogonalEdgeStyle;rounded=0;orthogonalLoop=1;jettySize=auto;html=1;exitX=0.5;exitY=1;exitDx=0;exitDy=0;entryX=0;entryY=0.5;entryDx=0;entryDy=0;dashed=1;endArrow=block;endFill=0;fillColor=#1ba1e2;strokeColor=#006EAF;" parent="1" source="KD3m5nGk-_m69su_pS_g-43" target="KD3m5nGk-_m69su_pS_g-38" edge="1">
          <mxGeometry relative="1" as="geometry" />
        </mxCell>
        <mxCell id="KD3m5nGk-_m69su_pS_g-69" style="edgeStyle=orthogonalEdgeStyle;rounded=0;orthogonalLoop=1;jettySize=auto;html=1;exitX=0.25;exitY=1;exitDx=0;exitDy=0;entryX=0.5;entryY=0;entryDx=0;entryDy=0;dashed=1;fillColor=#1ba1e2;strokeColor=#006EAF;" parent="1" source="KD3m5nGk-_m69su_pS_g-43" target="KD3m5nGk-_m69su_pS_g-67" edge="1">
          <mxGeometry relative="1" as="geometry" />
        </mxCell>
        <mxCell id="KD3m5nGk-_m69su_pS_g-43" value="RemoteFeedLoader" style="rounded=0;whiteSpace=wrap;html=1;fillColor=#1ba1e2;strokeColor=#006EAF;fontColor=#ffffff;" parent="1" vertex="1">
          <mxGeometry x="960" y="130" width="120" height="40" as="geometry" />
        </mxCell>
        <mxCell id="KD3m5nGk-_m69su_pS_g-45" style="edgeStyle=orthogonalEdgeStyle;rounded=0;orthogonalLoop=1;jettySize=auto;html=1;exitX=0.5;exitY=1;exitDx=0;exitDy=0;entryX=1;entryY=0.5;entryDx=0;entryDy=0;dashed=1;endArrow=block;endFill=0;fillColor=#d80073;strokeColor=#A50040;" parent="1" source="KD3m5nGk-_m69su_pS_g-44" target="KD3m5nGk-_m69su_pS_g-38" edge="1">
          <mxGeometry relative="1" as="geometry" />
        </mxCell>
        <mxCell id="KD3m5nGk-_m69su_pS_g-44" value="LocalFeedLoader" style="rounded=0;whiteSpace=wrap;html=1;fillColor=#d80073;strokeColor=#A50040;fontColor=#ffffff;" parent="1" vertex="1">
          <mxGeometry x="1140" y="130" width="120" height="40" as="geometry" />
        </mxCell>
        <mxCell id="KD3m5nGk-_m69su_pS_g-47" value="&lt;b&gt;&lt;font style=&quot;font-size: 14px;&quot;&gt;What is Modular architecture - Modular Design&lt;br&gt;Getting start with Tooling - Diagram&lt;br&gt;&lt;/font&gt;&lt;/b&gt;" style="text;html=1;strokeColor=none;fillColor=none;align=center;verticalAlign=middle;whiteSpace=wrap;rounded=0;" parent="1" vertex="1">
          <mxGeometry x="210" width="350" height="40" as="geometry" />
        </mxCell>
        <mxCell id="KD3m5nGk-_m69su_pS_g-49" style="edgeStyle=orthogonalEdgeStyle;rounded=0;orthogonalLoop=1;jettySize=auto;html=1;exitX=0.5;exitY=1;exitDx=0;exitDy=0;entryX=0.5;entryY=0;entryDx=0;entryDy=0;dashed=1;endArrow=block;endFill=0;fillColor=#6a00ff;strokeColor=#3700CC;" parent="1" source="KD3m5nGk-_m69su_pS_g-48" target="KD3m5nGk-_m69su_pS_g-38" edge="1">
          <mxGeometry relative="1" as="geometry" />
        </mxCell>
        <mxCell id="KD3m5nGk-_m69su_pS_g-50" style="edgeStyle=orthogonalEdgeStyle;rounded=0;orthogonalLoop=1;jettySize=auto;html=1;exitX=0.75;exitY=1;exitDx=0;exitDy=0;entryX=0.5;entryY=0;entryDx=0;entryDy=0;fillColor=#6a00ff;strokeColor=#3700CC;" parent="1" source="KD3m5nGk-_m69su_pS_g-48" target="KD3m5nGk-_m69su_pS_g-44" edge="1">
          <mxGeometry relative="1" as="geometry" />
        </mxCell>
        <mxCell id="KD3m5nGk-_m69su_pS_g-51" style="edgeStyle=orthogonalEdgeStyle;rounded=0;orthogonalLoop=1;jettySize=auto;html=1;exitX=0.25;exitY=1;exitDx=0;exitDy=0;entryX=0.5;entryY=0;entryDx=0;entryDy=0;fillColor=#6a00ff;strokeColor=#3700CC;" parent="1" source="KD3m5nGk-_m69su_pS_g-48" target="KD3m5nGk-_m69su_pS_g-43" edge="1">
          <mxGeometry relative="1" as="geometry" />
        </mxCell>
        <mxCell id="KD3m5nGk-_m69su_pS_g-48" value="RemoteWithLocalFallbackFeedLoader" style="rounded=0;whiteSpace=wrap;html=1;fillColor=#6a00ff;fontColor=#ffffff;strokeColor=#3700CC;" parent="1" vertex="1">
          <mxGeometry x="960" y="60" width="300" height="40" as="geometry" />
        </mxCell>
        <mxCell id="KD3m5nGk-_m69su_pS_g-56" value="" style="endArrow=classic;html=1;rounded=0;align=left;fillColor=#e51400;strokeColor=#B20000;" parent="1" edge="1">
          <mxGeometry width="50" height="50" relative="1" as="geometry">
            <mxPoint x="1500" y="190" as="sourcePoint" />
            <mxPoint x="1660" y="190" as="targetPoint" />
          </mxGeometry>
        </mxCell>
        <mxCell id="KD3m5nGk-_m69su_pS_g-57" value="A SOLID Arrow, SOLID head:&lt;br&gt;Strong dependent on" style="text;html=1;align=left;verticalAlign=middle;resizable=0;points=[];autosize=1;strokeColor=#B20000;fillColor=#e51400;fontColor=#ffffff;" parent="1" vertex="1">
          <mxGeometry x="1500" y="205" width="180" height="40" as="geometry" />
        </mxCell>
        <mxCell id="KD3m5nGk-_m69su_pS_g-58" value="" style="endArrow=block;html=1;rounded=0;align=left;fillColor=#d80073;strokeColor=#A50040;endFill=0;" parent="1" edge="1">
          <mxGeometry width="50" height="50" relative="1" as="geometry">
            <mxPoint x="1500" y="280" as="sourcePoint" />
            <mxPoint x="1660" y="280" as="targetPoint" />
          </mxGeometry>
        </mxCell>
        <mxCell id="KD3m5nGk-_m69su_pS_g-59" value="A SOLID Arrow, EMPTY head:&lt;br&gt;A Class Inherits from other class" style="text;html=1;align=left;verticalAlign=middle;resizable=0;points=[];autosize=1;strokeColor=#A50040;fillColor=#d80073;fontColor=#ffffff;" parent="1" vertex="1">
          <mxGeometry x="1500" y="295" width="200" height="40" as="geometry" />
        </mxCell>
        <mxCell id="KD3m5nGk-_m69su_pS_g-60" value="" style="endArrow=block;html=1;rounded=0;align=left;fillColor=#008a00;strokeColor=#005700;dashed=1;endFill=0;" parent="1" edge="1">
          <mxGeometry width="50" height="50" relative="1" as="geometry">
            <mxPoint x="1500" y="365" as="sourcePoint" />
            <mxPoint x="1660" y="365" as="targetPoint" />
          </mxGeometry>
        </mxCell>
        <mxCell id="KD3m5nGk-_m69su_pS_g-61" value="A DASH Arrow, EMPTY head:&lt;br&gt;Conform to or Implement of" style="text;html=1;align=left;verticalAlign=middle;resizable=0;points=[];autosize=1;strokeColor=#005700;fillColor=#008a00;fontColor=#ffffff;" parent="1" vertex="1">
          <mxGeometry x="1500" y="380" width="180" height="40" as="geometry" />
        </mxCell>
        <mxCell id="KD3m5nGk-_m69su_pS_g-62" value="" style="endArrow=classic;html=1;rounded=0;align=left;dashed=1;endFill=1;fillColor=#a20025;strokeColor=#6F0000;" parent="1" edge="1">
          <mxGeometry width="50" height="50" relative="1" as="geometry">
            <mxPoint x="1500" y="450" as="sourcePoint" />
            <mxPoint x="1660" y="450" as="targetPoint" />
          </mxGeometry>
        </mxCell>
        <mxCell id="KD3m5nGk-_m69su_pS_g-63" value="A DASH Arrow, SOLID head:&lt;br&gt;Weak reference" style="text;html=1;align=left;verticalAlign=middle;resizable=0;points=[];autosize=1;fillColor=#a20025;fontColor=#ffffff;strokeColor=#6F0000;" parent="1" vertex="1">
          <mxGeometry x="1500" y="465" width="180" height="40" as="geometry" />
        </mxCell>
        <mxCell id="KD3m5nGk-_m69su_pS_g-67" value="HTTPClient" style="rounded=0;whiteSpace=wrap;html=1;fillColor=#1ba1e2;strokeColor=#006EAF;fontColor=#ffffff;" parent="1" vertex="1">
          <mxGeometry x="880" y="200" width="120" height="40" as="geometry" />
        </mxCell>
        <mxCell id="KD3m5nGk-_m69su_pS_g-72" style="edgeStyle=orthogonalEdgeStyle;rounded=0;orthogonalLoop=1;jettySize=auto;html=1;exitX=0.5;exitY=1;exitDx=0;exitDy=0;" parent="1" source="KD3m5nGk-_m69su_pS_g-15" target="KD3m5nGk-_m69su_pS_g-15" edge="1">
          <mxGeometry relative="1" as="geometry" />
        </mxCell>
        <mxCell id="KD3m5nGk-_m69su_pS_g-74" value="Validate Your Design Decision&amp;nbsp;" style="rounded=0;whiteSpace=wrap;html=1;fillColor=#60a917;fontColor=#ffffff;strokeColor=#2D7600;" parent="1" vertex="1">
          <mxGeometry x="165" y="320" width="120" height="60" as="geometry" />
        </mxCell>
        <mxCell id="KD3m5nGk-_m69su_pS_g-76" value="Easy to see Dependency Graph" style="rounded=0;whiteSpace=wrap;html=1;" parent="1" vertex="1">
          <mxGeometry x="480" y="320" width="120" height="60" as="geometry" />
        </mxCell>
        <mxCell id="KD3m5nGk-_m69su_pS_g-78" style="edgeStyle=orthogonalEdgeStyle;rounded=0;orthogonalLoop=1;jettySize=auto;html=1;exitX=1;exitY=0.5;exitDx=0;exitDy=0;entryX=-0.005;entryY=0.559;entryDx=0;entryDy=0;entryPerimeter=0;fillColor=#d5e8d4;strokeColor=#82b366;" parent="1" source="KD3m5nGk-_m69su_pS_g-7" target="KD3m5nGk-_m69su_pS_g-9" edge="1">
          <mxGeometry relative="1" as="geometry" />
        </mxCell>
        <mxCell id="KD3m5nGk-_m69su_pS_g-79" value="Knowledge tranfer tool" style="rounded=0;whiteSpace=wrap;html=1;fillColor=#6a00ff;fontColor=#ffffff;strokeColor=#3700CC;" parent="1" vertex="1">
          <mxGeometry x="480" y="130" width="120" height="60" as="geometry" />
        </mxCell>
        <mxCell id="KD3m5nGk-_m69su_pS_g-81" value="&lt;b style=&quot;border-color: var(--border-color); color: rgb(0, 0, 0); font-family: Helvetica; font-size: 12px; font-style: normal; font-variant-ligatures: normal; font-variant-caps: normal; letter-spacing: normal; orphans: 2; text-align: center; text-indent: 0px; text-transform: none; widows: 2; word-spacing: 0px; -webkit-text-stroke-width: 0px; background-color: rgb(251, 251, 251); text-decoration-thickness: initial; text-decoration-style: initial; text-decoration-color: initial;&quot;&gt;&lt;font style=&quot;border-color: var(--border-color); font-size: 14px;&quot;&gt;Modular architecture&lt;br&gt;&lt;br&gt;A divide and conquer technique to spit big thing into many small chunk for easier resolve.&lt;br&gt;&lt;br&gt;In the limit of this talk we only talk about a Feature of an app and focusing on a Tooling for helping us to do it.&lt;br&gt;&lt;/font&gt;&lt;/b&gt;" style="text;whiteSpace=wrap;html=1;" parent="1" vertex="1">
          <mxGeometry x="950" y="-230" width="330" height="180" as="geometry" />
        </mxCell>
      </root>
    </mxGraphModel>
  </diagram>
</mxfile>
